<?xml version="1.0" encoding="UTF-8"?>
<svg width="30px" height="30px" viewBox="0 0 30 30" version="1.1" xmlns="http://www.w3.org/2000/svg" xmlns:xlink="http://www.w3.org/1999/xlink">
    <!-- Generator: Sketch 51.3 (57544) - http://www.bohemiancoding.com/sketch -->
    <title>Group</title>
    <desc>Created with Sketch.</desc>
    <defs></defs>
    <g id="Page-1" stroke="none" stroke-width="1" fill="none" fill-rule="evenodd">
        <g id="Icons" transform="translate(-38.000000, -103.000000)">
            <g id="Group" transform="translate(38.000000, 103.000000)">
                <circle id="Oval-2" fill="#16BE53" fill-rule="nonzero" cx="15" cy="15" r="15"></circle>
                <path d="M11.6800597,24.4996957 C10.1653502,24.4996957 8.7511164,23.9162952 7.66658439,22.8257663 C6.58084061,21.7609995 6,20.3406342 6,18.8450619 C6,17.4246966 6.55519153,16.0817192 7.56499787,15.0920581 L16.5270291,6.21731102 C17.310033,5.43085629 18.3701277,5 19.5306981,5 C20.7426677,5 21.9033391,5.45661842 22.712093,6.26782101 C23.5197361,7.07902361 24,8.24582464 24,9.46323709 C24,10.604276 23.5710343,11.6690428 22.7633912,12.4555482 L15.1138557,20.037625 C14.5330151,20.6210255 13.751021,20.9250997 12.9177288,20.9250997 C12.0597974,20.9250997 11.2265052,20.5705156 10.6456646,19.987115 C10.0401847,19.3789667 9.68614658,18.5420019 9.68614658,17.7050372 C9.68614658,16.8938346 10.0145356,16.082632 10.5953762,15.5239794 L16.6542143,9.51476134 L17.714309,10.6052903 L11.6554709,16.6145083 C11.352731,16.8938346 11.2008561,17.2989288 11.2008561,17.7050372 C11.2008561,18.1358935 11.3773753,18.5925119 11.7057593,18.8965861 C12.0341483,19.2264224 12.463114,19.4037145 12.9177288,19.4037145 C13.3466946,19.4037145 13.751021,19.2511804 14.053761,18.9470961 L21.6775464,11.3660336 C22.1824496,10.8589052 22.4605502,10.1992325 22.4605502,9.46430206 C22.4605502,8.65309946 22.1578103,7.89240686 21.627258,7.35951633 C21.0967058,6.85238792 20.3147118,6.54831373 19.5070686,6.54831373 C18.775363,6.54831373 18.0682966,6.82764006 17.5880327,7.33476846 L8.62600139,16.2095155 C7.91893499,16.9196982 7.51561834,17.8576829 7.51561834,18.8719397 C7.51561834,19.9624686 7.94458407,20.9767254 8.72758791,21.7620645 C9.51059175,22.5485192 10.5706864,22.9793755 11.6565312,22.9793755 C12.6919866,22.9793755 13.6504948,22.5990292 14.3575107,21.8888466 L21.7545946,14.5613482 L22.8146893,15.6518772 L22.2338487,16.2352777 L15.4176559,22.9805926 C14.4571534,23.9680984 13.1199426,24.5 11.6801102,24.5 L11.6800597,24.4996957 Z" id="Fill-1" fill="#FFFFFF"></path>
            </g>
        </g>
    </g>
</svg>