<?xml version="1.0" encoding="UTF-8"?>
<svg width="17px" height="15px" viewBox="0 0 17 15" version="1.1" xmlns="http://www.w3.org/2000/svg" xmlns:xlink="http://www.w3.org/1999/xlink">
    <!-- Generator: Sketch 51.3 (57544) - http://www.bohemiancoding.com/sketch -->
    <title>send icon</title>
    <desc>Created with Sketch.</desc>
    <defs></defs>
    <g id="Page-1" stroke="none" stroke-width="1" fill="none" fill-rule="evenodd">
        <g id="Icons" transform="translate(-42.000000, -65.000000)" fill="#CFD8DC">
            <path d="M54.8942129,65.1062323 C54.7946099,65.0066313 54.6462634,64.9734298 54.5148651,65.0221724 L39.2380576,70.5884946 C39.0953641,70.6407671 39,70.7764016 39,70.9282679 C39,71.0808485 39.0953641,71.2164848 39.2380576,71.2680412 L46.2040081,73.7961327 L48.7321492,80.7619471 C48.7837175,80.9046378 48.9193546,81 49.0719292,81 C49.2238057,81 49.3601518,80.905343 49.4117092,80.7619471 L54.9781406,65.4854388 C55.0261753,65.3533433 54.993682,65.2057031 54.8940791,65.1060985 L54.8942129,65.1062323 Z M49.0727972,79.5801891 L46.9056125,73.6069852 L49.0283106,71.4843287 C49.1695918,71.3430503 49.1695918,71.1141749 49.0283106,70.9729055 C48.8870295,70.8316362 48.6581495,70.8316272 48.5168774,70.9729055 L46.3934559,73.0948387 L40.4201348,70.9276965 L54.0332163,65.9673567 L49.0727972,79.5801891 Z" id="send-icon" transform="translate(47.000000, 73.000000) rotate(48.000000) translate(-47.000000, -73.000000) "></path>
        </g>
    </g>
</svg>