<?xml version="1.0" encoding="UTF-8"?>
<svg width="16px" height="17px" viewBox="0 0 16 17" version="1.1" xmlns="http://www.w3.org/2000/svg" xmlns:xlink="http://www.w3.org/1999/xlink">
    <!-- Generator: Sketch 51.3 (57544) - http://www.bohemiancoding.com/sketch -->
    <title>Fill 1</title>
    <desc>Created with Sketch.</desc>
    <defs></defs>
    <g id="Page-1" stroke="none" stroke-width="1" fill="none" fill-rule="evenodd">
        <g id="Icons" transform="translate(-42.000000, -36.000000)" fill="#CFD8DC">
            <path d="M47.0489419,52.9997347 C45.7025335,52.9997347 44.4454368,52.4911292 43.4814083,51.5404116 C42.5163028,50.6121534 42,49.3738863 42,48.0700539 C42,46.8317868 42.4935036,45.660986 43.3911092,44.7982045 L51.3573592,37.0612455 C52.0533627,36.3756183 52.9956691,36 54.0272872,36 C55.1045935,36 56.1363014,36.3980776 56.8551938,37.1052799 C57.5730988,37.8124821 58,38.8296933 58,39.8910272 C58,40.8857791 57.6186971,41.8140373 56.9007921,42.4997087 L50.101205,49.1097244 C49.5849023,49.61833 48.8897965,49.8834203 48.1490923,49.8834203 C47.3864865,49.8834203 46.6457824,49.5742956 46.1294796,49.06569 C45.5912753,48.5355094 45.2765747,47.8058478 45.2765747,47.0761863 C45.2765747,46.368984 45.5684761,45.6617818 46.0847789,45.1747512 L51.4704127,39.9359458 L52.4127191,40.8866633 L47.0270853,46.1254688 C46.7579831,46.368984 46.6229832,46.722143 46.6229832,47.0761863 C46.6229832,47.4518046 46.7798891,47.8498822 47.071786,48.1149725 C47.3636874,48.4025221 47.7449902,48.5570845 48.1490923,48.5570845 C48.5303952,48.5570845 48.8897965,48.424106 49.1588986,48.1590069 L55.9355968,41.5498754 C56.3843996,41.1077635 56.6316002,40.5326643 56.6316002,39.8919556 C56.6316002,39.1847534 56.362498,38.5215855 55.890896,38.0570142 C55.419294,37.6149023 54.7241882,37.349812 54.0062832,37.349812 C53.3558782,37.349812 52.7273747,37.5933272 52.3004735,38.0354392 L44.3342235,45.7723982 C43.70572,46.3915317 43.3472163,47.209262 43.3472163,48.0934859 C43.3472163,49.0442034 43.7285192,49.9284273 44.4245226,50.6130818 C45.120526,51.298709 46.0628324,51.6743273 47.0280277,51.6743273 C47.9484326,51.6743273 48.8004398,51.3427434 49.4288984,50.7236098 L56.0040841,44.3355344 L56.9463905,45.2862519 L56.4300877,45.7948575 L50.3712497,51.6753884 C49.5174696,52.5362909 48.3288378,53 47.0489868,53 L47.0489419,52.9997347 Z" id="Fill-1"></path>
        </g>
    </g>
</svg>