<?xml version="1.0" encoding="UTF-8"?>
<svg width="30px" height="30px" viewBox="0 0 30 30" version="1.1" xmlns="http://www.w3.org/2000/svg" xmlns:xlink="http://www.w3.org/1999/xlink">
    <!-- Generator: Sketch 51.3 (57544) - http://www.bohemiancoding.com/sketch -->
    <title>Group 2</title>
    <desc>Created with Sketch.</desc>
    <defs></defs>
    <g id="Page-1" stroke="none" stroke-width="1" fill="none" fill-rule="evenodd">
        <g id="Icons" transform="translate(-40.000000, -152.000000)">
            <g id="Group-2" transform="translate(40.000000, 152.000000)">
                <circle id="Oval" fill="#16BE53" fill-rule="nonzero" cx="15" cy="15" r="15"></circle>
                <path d="M21.5914684,5.82999024 C21.479415,5.7179391 21.3125252,5.68058736 21.1647021,5.7354228 L3.97829366,11.9975353 C3.81776348,12.0563419 3.71047889,12.2089307 3.71047889,12.3797803 C3.71047889,12.5514335 3.81776348,12.7040243 3.97829366,12.7620253 L11.814988,15.6061282 L14.6591467,23.4426694 C14.7171611,23.6031964 14.8697528,23.7104789 15.0413992,23.7104789 C15.2122603,23.7104789 15.3656496,23.6039898 15.4236517,23.4426694 L21.6858871,6.25659755 C21.7399261,6.10799012 21.7033712,5.94189491 21.5913178,5.8298397 L21.5914684,5.82999024 Z M15.0423758,22.1131916 L12.6042929,15.3933372 L14.9923283,13.0053487 C15.1512696,12.8464105 15.1512696,12.5889256 14.9923283,12.4299976 C14.8333871,12.2710696 14.5758971,12.2710595 14.416966,12.4299976 L12.0281168,14.8171724 L5.30813054,12.3791374 L20.6228472,6.79875518 L15.0423758,22.1131916 Z" id="send-icon" fill="#FFFFFF" transform="translate(12.710479, 14.710479) rotate(48.000000) translate(-12.710479, -14.710479) "></path>
            </g>
        </g>
    </g>
</svg>